<svg width="180" height="155" viewBox="0 0 180 155" fill="inherit" xmlns="http://www.w3.org/2000/svg">
<path d="M90.9043 33.5059C95.4192 33.5543 99.8624 33.9024 104.215 34.5303L109.811 86.5H70.1895L75.1201 40.7041L78.8359 39.4385C81.5456 38.5151 83.436 36.2812 84.0449 33.6855C86.0151 33.566 88.0007 33.5037 90 33.5L90.9043 33.5059Z" fill="inherit"/>
<path d="M22.6055 13.8379C27.0205 11.4446 32.5401 13.0832 34.9336 17.498L52.8623 50.5713C55.2556 54.9864 53.6171 60.5059 49.2021 62.8994C44.787 65.2929 39.2675 63.6534 36.874 59.2383L18.9443 26.166C16.5511 21.7509 18.1904 16.2313 22.6055 13.8379Z" fill="inherit"/>
<path d="M145.066 17.498C147.46 13.0832 152.98 11.4446 157.395 13.8379C161.81 16.2313 163.449 21.7509 161.056 26.166L143.126 59.2383C140.732 63.6534 135.213 65.2929 130.798 62.8994C126.383 60.5059 124.744 54.9864 127.138 50.5713L145.066 17.498Z" fill="inherit"/>
<path d="M12.0635 30.3193C15.0067 28.7241 18.6856 29.8168 20.2813 32.7598L32.2354 54.8096C33.831 57.7529 32.7383 61.4327 29.7949 63.0283C26.8516 64.624 23.1718 63.5312 21.5762 60.5879L9.62305 38.5381C8.02744 35.5947 9.12013 31.915 12.0635 30.3193Z" fill="inherit"/>
<path d="M159.719 32.7598C161.314 29.8168 164.993 28.7241 167.937 30.3193C170.88 31.915 171.973 35.5947 170.377 38.5381L158.424 60.5879C156.828 63.5312 153.148 64.624 150.205 63.0283C147.262 61.4327 146.169 57.7529 147.765 54.8096L159.719 32.7598Z" fill="inherit"/>
<path d="M18.2559 59.8506L17.124 60.4531C14.8319 61.6717 11.9853 60.8008 10.7666 58.5088L5.55078 48.6992C4.33235 46.4072 5.20315 43.5614 7.49512 42.3428L8.62695 41.7412L18.2559 59.8506Z" fill="inherit"/>
<path d="M172.505 42.3428C174.797 43.5614 175.668 46.4072 174.449 48.6992L169.233 58.5088C168.015 60.8008 165.168 61.6718 162.876 60.4531L161.744 59.8506L171.373 41.7412L172.505 42.3428Z" fill="inherit"/>
<path d="M68.8613 21.5244C70.0502 24.4601 72.4139 26.7439 75.248 27.9834L71.1787 29.3701C68.7715 30.1906 67.2261 32.3898 67.1201 34.7861C64.5047 35.5074 61.9384 36.347 59.4277 37.2998V37.2852C56.1607 38.5232 52.9868 39.9518 49.9209 41.5576L40.5508 24.2734C48.5297 20.0656 57.1061 16.8386 66.1191 14.752L68.8613 21.5244Z" fill="inherit"/>
<path d="M113.881 14.752C122.894 16.8386 131.47 20.0656 139.449 24.2734L130.079 41.5576C127.013 39.9518 123.839 38.5232 120.572 37.2852V37.2998C111.903 34.0099 102.573 32.0634 92.835 31.7139C92.3643 31.6972 91.8926 31.6841 91.4199 31.6748L90 31.6582C89.0515 31.6617 88.1062 31.6805 87.165 31.7139C86.1908 31.7488 85.2207 31.8005 84.2549 31.8672C84.2549 31.0115 84.1195 30.1412 83.8281 29.2861C83.7949 29.1885 83.7577 29.0933 83.7178 29H98.333L100.864 28.9746C105.321 28.6029 109.435 25.7309 111.139 21.5244L113.881 14.752Z" fill="inherit"/>
<path d="M79.4941 28.6445C80.5397 28.2883 81.676 28.848 82.0322 29.8936C83.072 32.9456 81.5126 36.2532 78.5381 37.4141C78.4242 37.4608 78.3086 37.5056 78.1904 37.5459L75.3564 38.5107V38.5059L74.502 38.7979C72.411 39.5101 70.1384 38.3926 69.4258 36.3018C69.1887 35.6059 69.1544 34.8896 69.291 34.2178C69.2594 34.2256 69.3857 34.1943 69.291 34.2178C69.5559 32.9396 70.6363 31.7368 71.9219 31.2246C71.848 31.2498 71.9933 31.1956 71.9219 31.2246L79.4941 28.6445Z" fill="inherit"/>
<path d="M103.052 0C110.11 0.000463135 114.919 7.1967 112.256 13.7734L109.422 20.7734C108.002 24.2808 104.746 26.6559 101.04 26.9648L103.971 15.2422C104.104 14.7066 103.779 14.1644 103.243 14.0303C102.708 13.8965 102.165 14.2222 102.031 14.7578L99.0312 26.7578C99.011 26.8389 99.002 26.9201 99.002 27H91.001V14C91.001 13.4825 90.6066 13.0565 90.1025 13.0049L90 13C89.448 13.0003 88.999 13.4479 88.999 14V27H80.998C80.998 26.9201 80.989 26.8389 80.9688 26.7578L77.9688 14.7578C77.8348 14.2222 77.2925 13.8965 76.7568 14.0303C76.2214 14.1644 75.8956 14.7066 76.0293 15.2422L78.96 26.9648C75.2544 26.6559 71.9985 24.2808 70.5781 20.7734L67.7441 13.7734C65.0812 7.1967 69.89 0.000463134 76.9482 0H103.052Z" fill="inherit"/>
<path d="M89.4994 106C59.7418 106 33.5034 90.9281 18 68C35.844 87.1343 61.2747 99.0985 89.4994 99.0985C117.724 99.0985 143.156 87.1346 161 68C145.497 90.9284 119.257 106 89.4994 106Z" fill="inherit"/>
<path d="M3.8 136C2.92 136 2.29333 135.813 1.92 135.44C1.57333 135.067 1.4 134.493 1.4 133.72V111.04C1.4 110.267 1.57333 109.707 1.92 109.36C2.29333 108.987 2.93333 108.8 3.84 108.8H8.44C9.02667 108.8 9.49333 108.88 9.84 109.04C10.1867 109.173 10.4533 109.453 10.64 109.88L15.32 121.6L20 109.88C20.1867 109.453 20.4533 109.173 20.8 109.04C21.1467 108.88 21.6133 108.8 22.2 108.8H26.8C27.7067 108.8 28.3333 108.987 28.68 109.36C29.0533 109.707 29.24 110.267 29.24 111.04V133.72C29.24 134.493 29.0533 135.067 28.68 135.44C28.3333 135.813 27.72 136 26.84 136H23C22.12 136 21.4933 135.813 21.12 135.44C20.7467 135.067 20.56 134.493 20.56 133.72V122.8L18.2 128.24C17.88 129.013 17.5333 129.573 17.16 129.92C16.7867 130.24 16.1733 130.4 15.32 130.4C14.4667 130.4 13.8533 130.24 13.48 129.92C13.1067 129.573 12.76 129.013 12.44 128.24L10.08 122.8V133.72C10.08 134.493 9.89333 135.067 9.52 135.44C9.17333 135.813 8.54667 136 7.64 136H3.8ZM44.2988 136.6C39.5521 136.6 35.9521 135.373 33.4988 132.92C31.0454 130.44 29.8188 126.933 29.8188 122.4C29.8188 117.867 31.0454 114.373 33.4988 111.92C35.9521 109.44 39.5521 108.2 44.2988 108.2C49.0454 108.2 52.6454 109.44 55.0988 111.92C57.5521 114.373 58.7788 117.867 58.7788 122.4C58.7788 126.933 57.5521 130.44 55.0988 132.92C52.6454 135.373 49.0454 136.6 44.2988 136.6ZM44.2988 129.88C46.0321 129.88 47.2854 129.267 48.0588 128.04C48.8321 126.787 49.2188 124.907 49.2188 122.4C49.2188 119.867 48.8321 117.987 48.0588 116.76C47.2854 115.533 46.0321 114.92 44.2988 114.92C42.5654 114.92 41.3121 115.533 40.5388 116.76C39.7654 117.987 39.3788 119.867 39.3788 122.4C39.3788 124.907 39.7654 126.787 40.5388 128.04C41.3121 129.267 42.5654 129.88 44.2988 129.88ZM69.2378 136C68.6511 136 68.1978 135.893 67.8778 135.68C67.5845 135.44 67.3311 135.04 67.1178 134.48L57.5578 110.52C57.4245 110.173 57.3578 109.88 57.3578 109.64C57.3578 109.08 57.6511 108.8 58.2378 108.8H65.7578C66.5845 108.8 67.1045 109.16 67.3178 109.88L71.3978 122.92L75.4778 109.88C75.6911 109.16 76.2111 108.8 77.0378 108.8H84.5578C85.1445 108.8 85.4378 109.08 85.4378 109.64C85.4378 109.88 85.3711 110.173 85.2378 110.52L75.7178 134.48C75.5045 135.04 75.2378 135.44 74.9178 135.68C74.6245 135.893 74.1845 136 73.5978 136H69.2378ZM89.8547 136C88.9747 136 88.348 135.813 87.9747 135.44C87.628 135.067 87.4547 134.493 87.4547 133.72V111.08C87.4547 110.307 87.628 109.733 87.9747 109.36C88.348 108.987 88.9747 108.8 89.8547 108.8H106.415C107.268 108.8 107.841 108.987 108.135 109.36C108.455 109.707 108.615 110.28 108.615 111.08V113.32C108.615 114.12 108.455 114.707 108.135 115.08C107.841 115.427 107.268 115.6 106.415 115.6H97.0547V119.04H102.815C103.668 119.04 104.241 119.227 104.535 119.6C104.855 119.947 105.015 120.52 105.015 121.32V123.48C105.015 124.28 104.855 124.867 104.535 125.24C104.241 125.587 103.668 125.76 102.815 125.76H97.0547V129.2H106.375C107.228 129.2 107.801 129.387 108.095 129.76C108.415 130.107 108.575 130.68 108.575 131.48V133.72C108.575 134.52 108.415 135.107 108.095 135.48C107.801 135.827 107.228 136 106.375 136H89.8547ZM136.096 136.6C131.349 136.6 127.749 135.373 125.296 132.92C122.842 130.44 121.616 126.933 121.616 122.4C121.616 117.867 122.842 114.373 125.296 111.92C127.749 109.44 131.349 108.2 136.096 108.2C140.842 108.2 144.442 109.44 146.896 111.92C149.349 114.373 150.576 117.867 150.576 122.4C150.576 126.933 149.349 130.44 146.896 132.92C144.442 135.373 140.842 136.6 136.096 136.6ZM136.096 129.88C137.829 129.88 139.082 129.267 139.856 128.04C140.629 126.787 141.016 124.907 141.016 122.4C141.016 119.867 140.629 117.987 139.856 116.76C139.082 115.533 137.829 114.92 136.096 114.92C134.362 114.92 133.109 115.533 132.336 116.76C131.562 117.987 131.176 119.867 131.176 122.4C131.176 124.907 131.562 126.787 132.336 128.04C133.109 129.267 134.362 129.88 136.096 129.88ZM154.972 136C154.092 136 153.465 135.813 153.092 135.44C152.745 135.067 152.572 134.493 152.572 133.72V111.04C152.572 110.267 152.745 109.707 153.092 109.36C153.465 108.987 154.105 108.8 155.012 108.8H158.812C159.372 108.8 159.799 108.88 160.092 109.04C160.412 109.173 160.719 109.453 161.012 109.88L168.252 120.64V111.08C168.252 110.307 168.425 109.733 168.772 109.36C169.145 108.987 169.772 108.8 170.652 108.8H175.412C176.319 108.8 176.945 108.987 177.292 109.36C177.665 109.707 177.852 110.28 177.852 111.08V133.76C177.852 134.533 177.665 135.107 177.292 135.48C176.945 135.827 176.319 136 175.412 136H171.612C171.052 136 170.612 135.933 170.292 135.8C169.999 135.64 169.705 135.347 169.412 134.92L162.172 124.16V133.76C162.172 134.533 161.985 135.107 161.612 135.48C161.265 135.827 160.639 136 159.732 136H154.972Z" fill="inherit"/>
<path d="M59.152 150C58.992 150 58.876 149.964 58.804 149.892C58.74 149.82 58.708 149.712 58.708 149.568V142.284C58.708 142.132 58.74 142.02 58.804 141.948C58.876 141.876 58.992 141.84 59.152 141.84H64.144C64.304 141.84 64.412 141.872 64.468 141.936C64.532 142 64.564 142.108 64.564 142.26V142.584C64.564 142.736 64.532 142.848 64.468 142.92C64.412 142.984 64.304 143.016 64.144 143.016H60.244V145.332H63.076C63.236 145.332 63.348 145.364 63.412 145.428C63.476 145.492 63.508 145.6 63.508 145.752V146.076C63.508 146.228 63.476 146.34 63.412 146.412C63.348 146.476 63.236 146.508 63.076 146.508H60.244V149.568C60.244 149.712 60.208 149.82 60.136 149.892C60.072 149.964 59.956 150 59.788 150H59.152ZM68.9489 150C68.7889 150 68.6729 149.964 68.6009 149.892C68.5369 149.82 68.5049 149.712 68.5049 149.568V142.284C68.5049 142.132 68.5369 142.02 68.6009 141.948C68.6729 141.876 68.7889 141.84 68.9489 141.84H69.5849C69.7449 141.84 69.8609 141.876 69.9329 141.948C70.0049 142.02 70.0409 142.132 70.0409 142.284V149.568C70.0409 149.712 70.0049 149.82 69.9329 149.892C69.8689 149.964 69.7529 150 69.5849 150H68.9489ZM76.954 150C76.794 150 76.678 149.964 76.606 149.892C76.534 149.82 76.498 149.712 76.498 149.568V143.016H74.398C74.238 143.016 74.126 142.984 74.062 142.92C74.006 142.856 73.978 142.748 73.978 142.596V142.272C73.978 142.12 74.006 142.012 74.062 141.948C74.126 141.876 74.238 141.84 74.398 141.84H80.134C80.294 141.84 80.406 141.876 80.47 141.948C80.534 142.012 80.566 142.12 80.566 142.272V142.596C80.566 142.748 80.534 142.856 80.47 142.92C80.406 142.984 80.294 143.016 80.134 143.016H78.034V149.568C78.034 149.712 77.998 149.82 77.926 149.892C77.862 149.964 77.746 150 77.578 150H76.954ZM84.945 150C84.785 150 84.669 149.964 84.597 149.892C84.533 149.82 84.501 149.712 84.501 149.568V142.284C84.501 142.132 84.533 142.02 84.597 141.948C84.669 141.876 84.789 141.84 84.957 141.84H85.509C85.621 141.84 85.709 141.856 85.773 141.888C85.837 141.92 85.901 141.984 85.965 142.08L89.925 147.576V142.284C89.925 142.132 89.957 142.02 90.021 141.948C90.093 141.876 90.209 141.84 90.369 141.84H91.005C91.165 141.84 91.281 141.876 91.353 141.948C91.425 142.02 91.461 142.132 91.461 142.284V149.568C91.461 149.712 91.425 149.82 91.353 149.892C91.289 149.964 91.173 150 91.005 150H90.441C90.329 150 90.245 149.988 90.189 149.964C90.133 149.932 90.069 149.868 89.997 149.772L86.037 144.288V149.568C86.037 149.712 86.001 149.82 85.929 149.892C85.865 149.964 85.749 150 85.581 150H84.945ZM96.3239 150C96.1639 150 96.0479 149.964 95.9759 149.892C95.9119 149.82 95.8799 149.712 95.8799 149.568V142.284C95.8799 142.132 95.9119 142.02 95.9759 141.948C96.0479 141.876 96.1639 141.84 96.3239 141.84H101.316C101.476 141.84 101.584 141.872 101.64 141.936C101.704 142 101.736 142.108 101.736 142.26V142.584C101.736 142.736 101.704 142.848 101.64 142.92C101.584 142.984 101.476 143.016 101.316 143.016H97.4159V145.344H100.248C100.408 145.344 100.52 145.376 100.584 145.44C100.648 145.504 100.68 145.612 100.68 145.764V146.064C100.68 146.216 100.648 146.328 100.584 146.4C100.52 146.464 100.408 146.496 100.248 146.496H97.4159V148.836H101.304C101.464 148.836 101.576 148.872 101.64 148.944C101.704 149.008 101.736 149.116 101.736 149.268V149.592C101.736 149.736 101.704 149.84 101.64 149.904C101.576 149.968 101.464 150 101.304 150H96.3239ZM108.71 150.18C108.142 150.18 107.582 150.12 107.03 150C106.486 149.872 106.05 149.696 105.722 149.472C105.618 149.4 105.566 149.336 105.566 149.28C105.566 149.224 105.582 149.176 105.614 149.136L106.01 148.512C106.058 148.44 106.102 148.404 106.142 148.404C106.182 148.404 106.234 148.424 106.298 148.464C106.594 148.64 106.938 148.784 107.33 148.896C107.722 149 108.118 149.052 108.518 149.052C109.062 149.052 109.47 148.964 109.742 148.788C110.022 148.604 110.162 148.312 110.162 147.912C110.162 147.672 110.11 147.48 110.006 147.336C109.902 147.192 109.75 147.068 109.55 146.964C109.35 146.86 109.026 146.72 108.578 146.544L108.302 146.436C107.782 146.228 107.35 146.028 107.006 145.836C106.67 145.644 106.39 145.392 106.166 145.08C105.942 144.768 105.83 144.388 105.83 143.94C105.83 143.212 106.106 142.652 106.658 142.26C107.218 141.86 107.95 141.66 108.854 141.66C109.406 141.66 109.882 141.712 110.282 141.816C110.69 141.92 111.042 142.08 111.338 142.296C111.434 142.368 111.482 142.436 111.482 142.5C111.482 142.548 111.466 142.592 111.434 142.632L111.05 143.256C111.002 143.328 110.962 143.364 110.93 143.364C110.898 143.364 110.846 143.34 110.774 143.292C110.262 142.964 109.626 142.8 108.866 142.8C108.362 142.8 107.982 142.892 107.726 143.076C107.47 143.26 107.342 143.552 107.342 143.952C107.342 144.2 107.394 144.4 107.498 144.552C107.61 144.696 107.77 144.82 107.978 144.924C108.186 145.028 108.522 145.168 108.986 145.344L109.286 145.464C109.87 145.696 110.326 145.912 110.654 146.112C110.982 146.304 111.234 146.548 111.41 146.844C111.594 147.132 111.686 147.504 111.686 147.96C111.686 148.648 111.426 149.192 110.906 149.592C110.394 149.984 109.662 150.18 108.71 150.18ZM118.354 150.18C117.786 150.18 117.226 150.12 116.674 150C116.13 149.872 115.694 149.696 115.366 149.472C115.262 149.4 115.21 149.336 115.21 149.28C115.21 149.224 115.226 149.176 115.258 149.136L115.654 148.512C115.702 148.44 115.746 148.404 115.786 148.404C115.826 148.404 115.878 148.424 115.942 148.464C116.238 148.64 116.582 148.784 116.974 148.896C117.366 149 117.762 149.052 118.162 149.052C118.706 149.052 119.114 148.964 119.386 148.788C119.666 148.604 119.806 148.312 119.806 147.912C119.806 147.672 119.754 147.48 119.65 147.336C119.546 147.192 119.394 147.068 119.194 146.964C118.994 146.86 118.67 146.72 118.222 146.544L117.946 146.436C117.426 146.228 116.994 146.028 116.65 145.836C116.314 145.644 116.034 145.392 115.81 145.08C115.586 144.768 115.474 144.388 115.474 143.94C115.474 143.212 115.75 142.652 116.302 142.26C116.862 141.86 117.594 141.66 118.498 141.66C119.05 141.66 119.526 141.712 119.926 141.816C120.334 141.92 120.686 142.08 120.982 142.296C121.078 142.368 121.126 142.436 121.126 142.5C121.126 142.548 121.11 142.592 121.078 142.632L120.694 143.256C120.646 143.328 120.606 143.364 120.574 143.364C120.542 143.364 120.49 143.34 120.418 143.292C119.906 142.964 119.27 142.8 118.51 142.8C118.006 142.8 117.626 142.892 117.37 143.076C117.114 143.26 116.986 143.552 116.986 143.952C116.986 144.2 117.038 144.4 117.142 144.552C117.254 144.696 117.414 144.82 117.622 144.924C117.83 145.028 118.166 145.168 118.63 145.344L118.93 145.464C119.514 145.696 119.97 145.912 120.298 146.112C120.626 146.304 120.878 146.548 121.054 146.844C121.238 147.132 121.33 147.504 121.33 147.96C121.33 148.648 121.07 149.192 120.55 149.592C120.038 149.984 119.306 150.18 118.354 150.18Z" fill="inherit"/>
</svg>
