<svg width="469" height="106" viewBox="0 0 469 106" fill="inherit" xmlns="http://www.w3.org/2000/svg">
<path d="M85.9043 33.5059C90.4192 33.5543 94.8624 33.9024 99.2148 34.5303L104.811 86.5H65.1895L70.1201 40.7041L73.8359 39.4385C76.5456 38.5151 78.436 36.2812 79.0449 33.6855C81.0151 33.566 83.0007 33.5037 85 33.5L85.9043 33.5059Z" fill="inherit"/>
<path d="M17.6055 13.8379C22.0205 11.4446 27.5401 13.0832 29.9336 17.498L47.8623 50.5713C50.2556 54.9864 48.6171 60.5059 44.2021 62.8994C39.787 65.2929 34.2675 63.6534 31.874 59.2383L13.9443 26.166C11.5511 21.7509 13.1904 16.2313 17.6055 13.8379Z" fill="inherit"/>
<path d="M140.066 17.498C142.46 13.0832 147.98 11.4446 152.395 13.8379C156.81 16.2313 158.449 21.7509 156.056 26.166L138.126 59.2383C135.732 63.6534 130.213 65.2929 125.798 62.8994C121.383 60.5059 119.744 54.9864 122.138 50.5713L140.066 17.498Z" fill="inherit"/>
<path d="M7.06348 30.3193C10.0067 28.7241 13.6856 29.8168 15.2813 32.7598L27.2354 54.8096C28.831 57.7529 27.7383 61.4327 24.7949 63.0283C21.8516 64.624 18.1718 63.5312 16.5762 60.5879L4.62305 38.5381C3.02744 35.5947 4.12013 31.915 7.06348 30.3193Z" fill="inherit"/>
<path d="M154.719 32.7598C156.314 29.8168 159.993 28.7241 162.937 30.3193C165.88 31.915 166.973 35.5947 165.377 38.5381L153.424 60.5879C151.828 63.5312 148.148 64.624 145.205 63.0283C142.262 61.4327 141.169 57.7529 142.765 54.8096L154.719 32.7598Z" fill="inherit"/>
<path d="M13.2559 59.8506L12.124 60.4531C9.83194 61.6717 6.98531 60.8008 5.7666 58.5088L0.550783 48.6992C-0.667648 46.4072 0.203147 43.5614 2.49512 42.3428L3.62695 41.7412L13.2559 59.8506Z" fill="inherit"/>
<path d="M167.505 42.3428C169.797 43.5614 170.668 46.4072 169.449 48.6992L164.233 58.5088C163.015 60.8008 160.168 61.6718 157.876 60.4531L156.744 59.8506L166.373 41.7412L167.505 42.3428Z" fill="inherit"/>
<path d="M63.8613 21.5244C65.0502 24.4601 67.4139 26.7439 70.248 27.9834L66.1787 29.3701C63.7715 30.1906 62.2261 32.3898 62.1201 34.7861C59.5047 35.5074 56.9384 36.347 54.4277 37.2998V37.2852C51.1607 38.5232 47.9868 39.9518 44.9209 41.5576L35.5508 24.2734C43.5297 20.0656 52.1061 16.8386 61.1191 14.752L63.8613 21.5244Z" fill="inherit"/>
<path d="M108.881 14.752C117.894 16.8386 126.47 20.0656 134.449 24.2734L125.079 41.5576C122.013 39.9518 118.839 38.5232 115.572 37.2852V37.2998C106.903 34.0099 97.5725 32.0634 87.835 31.7139C87.3643 31.6972 86.8926 31.6841 86.4199 31.6748L85 31.6582C84.0515 31.6617 83.1062 31.6805 82.165 31.7139C81.1908 31.7488 80.2207 31.8005 79.2549 31.8672C79.2549 31.0115 79.1195 30.1412 78.8281 29.2861C78.7949 29.1885 78.7577 29.0933 78.7178 29H93.333L95.8643 28.9746C100.321 28.6029 104.435 25.7309 106.139 21.5244L108.881 14.752Z" fill="inherit"/>
<path d="M74.4941 28.6445C75.5397 28.2883 76.676 28.848 77.0322 29.8936C78.072 32.9456 76.5126 36.2532 73.5381 37.4141C73.4242 37.4608 73.3086 37.5056 73.1904 37.5459L70.3564 38.5107V38.5059L69.502 38.7979C67.411 39.5101 65.1384 38.3926 64.4258 36.3018C64.1887 35.6059 64.1544 34.8896 64.291 34.2178C64.3857 34.1943 64.2594 34.2256 64.291 34.2178C64.5559 32.9396 65.6363 31.7368 66.9219 31.2246C66.9933 31.1956 66.848 31.2498 66.9219 31.2246L74.4941 28.6445Z" fill="inherit"/>
<path d="M98.0518 0C105.11 0.000463135 109.919 7.1967 107.256 13.7734L104.422 20.7734C103.002 24.2808 99.7456 26.6559 96.04 26.9648L98.9707 15.2422C99.1044 14.7066 98.7786 14.1644 98.2432 14.0303C97.7075 13.8965 97.1652 14.2222 97.0312 14.7578L94.0312 26.7578C94.011 26.8389 94.002 26.9201 94.002 27H86.001V14C86.001 13.4825 85.6066 13.0565 85.1025 13.0049L85 13C84.448 13.0003 83.999 13.4479 83.999 14V27H75.998C75.998 26.9201 75.989 26.8389 75.9688 26.7578L72.9688 14.7578C72.8348 14.2222 72.2925 13.8965 71.7568 14.0303C71.2214 14.1644 70.8956 14.7066 71.0293 15.2422L73.96 26.9648C70.2544 26.6559 66.9985 24.2808 65.5781 20.7734L62.7441 13.7734C60.0812 7.1967 64.89 0.000463134 71.9482 0H98.0518Z" fill="inherit"/>
<path d="M84.4994 106C54.7418 106 28.5034 90.9281 13 68C30.844 87.1343 56.2747 99.0985 84.4994 99.0985C112.724 99.0985 138.156 87.1346 156 68C140.497 90.9284 114.257 106 84.4994 106Z" fill="inherit"/>
<path d="M182.945 82.6932C181.498 82.6932 180.468 82.3864 179.855 81.7727C179.285 81.1591 179 80.2168 179 78.9457V41.6679C179 40.3969 179.285 39.4764 179.855 38.9066C180.468 38.293 181.52 37.9862 183.01 37.9862H190.57C191.535 37.9862 192.302 38.1177 192.871 38.3807C193.441 38.5998 193.879 39.06 194.186 39.7613L201.878 59.0248L209.569 39.7613C209.876 39.06 210.314 38.5998 210.884 38.3807C211.454 38.1177 212.221 37.9862 213.185 37.9862H220.745C222.235 37.9862 223.265 38.293 223.835 38.9066C224.449 39.4764 224.755 40.3969 224.755 41.6679V78.9457C224.755 80.2168 224.449 81.1591 223.835 81.7727C223.265 82.3864 222.257 82.6932 220.811 82.6932H214.5C213.054 82.6932 212.024 82.3864 211.41 81.7727C210.796 81.1591 210.49 80.2168 210.49 78.9457V60.9971L206.611 69.9385C206.085 71.2096 205.515 72.1301 204.902 72.6999C204.288 73.2258 203.28 73.4888 201.878 73.4888C200.475 73.4888 199.467 73.2258 198.854 72.6999C198.24 72.1301 197.67 71.2096 197.144 69.9385L193.266 60.9971V78.9457C193.266 80.2168 192.959 81.1591 192.345 81.7727C191.776 82.3864 190.746 82.6932 189.256 82.6932H182.945Z" fill="inherit"/>
<path d="M249.505 83.6794C241.703 83.6794 235.787 81.6632 231.755 77.6308C227.723 73.5545 225.707 67.7909 225.707 60.3397C225.707 52.8885 227.723 47.1467 231.755 43.1143C235.787 39.0381 241.703 37 249.505 37C257.306 37 263.222 39.0381 267.254 43.1143C271.286 47.1467 273.302 52.8885 273.302 60.3397C273.302 67.7909 271.286 73.5545 267.254 77.6308C263.222 81.6632 257.306 83.6794 249.505 83.6794ZM249.505 72.6341C252.353 72.6341 254.413 71.626 255.684 69.6098C256.955 67.5498 257.591 64.4597 257.591 60.3397C257.591 56.1758 256.955 53.0858 255.684 51.0696C254.413 49.0534 252.353 48.0453 249.505 48.0453C246.656 48.0453 244.596 49.0534 243.325 51.0696C242.054 53.0858 241.418 56.1758 241.418 60.3397C241.418 64.4597 242.054 67.5498 243.325 69.6098C244.596 71.626 246.656 72.6341 249.505 72.6341Z" fill="inherit"/>
<path d="M290.492 82.6932C289.528 82.6932 288.783 82.5179 288.257 82.1672C287.775 81.7727 287.358 81.1153 287.008 80.1949L271.296 40.8132C271.077 40.2435 270.967 39.7613 270.967 39.3668C270.967 38.4464 271.449 37.9862 272.413 37.9862H284.773C286.131 37.9862 286.986 38.5779 287.337 39.7613L294.042 61.1944L300.748 39.7613C301.098 38.5779 301.953 37.9862 303.311 37.9862H315.671C316.635 37.9862 317.117 38.4464 317.117 39.3668C317.117 39.7613 317.007 40.2435 316.788 40.8132L301.142 80.1949C300.791 81.1153 300.353 81.7727 299.827 82.1672C299.345 82.5179 298.622 82.6932 297.658 82.6932H290.492Z" fill="inherit"/>
<path d="M324.376 82.6932C322.93 82.6932 321.9 82.3864 321.286 81.7727C320.716 81.1591 320.432 80.2168 320.432 78.9457V41.7337C320.432 40.4626 320.716 39.5203 321.286 38.9066C321.9 38.293 322.93 37.9862 324.376 37.9862H351.593C352.995 37.9862 353.937 38.293 354.419 38.9066C354.945 39.4764 355.208 40.4188 355.208 41.7337V45.4154C355.208 46.7303 354.945 47.6946 354.419 48.3082C353.937 48.878 352.995 49.1629 351.593 49.1629H336.209V54.8171H345.676C347.078 54.8171 348.021 55.1239 348.503 55.7375C349.029 56.3073 349.292 57.2496 349.292 58.5646V62.1148C349.292 63.4297 349.029 64.394 348.503 65.0076C348.021 65.5774 347.078 65.8623 345.676 65.8623H336.209V71.5164H351.527C352.929 71.5164 353.872 71.8232 354.354 72.4369C354.88 73.0067 355.143 73.949 355.143 75.2639V78.9457C355.143 80.2606 354.88 81.2249 354.354 81.8385C353.872 82.4083 352.929 82.6932 351.527 82.6932H324.376Z" fill="inherit"/>
<path d="M400.373 83.6794C392.572 83.6794 386.656 81.6632 382.623 77.6308C378.591 73.5545 376.575 67.7909 376.575 60.3397C376.575 52.8885 378.591 47.1467 382.623 43.1143C386.656 39.0381 392.572 37 400.373 37C408.175 37 414.091 39.0381 418.123 43.1143C422.155 47.1467 424.171 52.8885 424.171 60.3397C424.171 67.7909 422.155 73.5545 418.123 77.6308C414.091 81.6632 408.175 83.6794 400.373 83.6794ZM400.373 72.6341C403.222 72.6341 405.282 71.626 406.553 69.6098C407.824 67.5498 408.459 64.4597 408.459 60.3397C408.459 56.1758 407.824 53.0858 406.553 51.0696C405.282 49.0534 403.222 48.0453 400.373 48.0453C397.525 48.0453 395.465 49.0534 394.194 51.0696C392.923 53.0858 392.287 56.1758 392.287 60.3397C392.287 64.4597 392.923 67.5498 394.194 69.6098C395.465 71.626 397.525 72.6341 400.373 72.6341Z" fill="inherit"/>
<path d="M431.397 82.6932C429.95 82.6932 428.92 82.3864 428.307 81.7727C427.737 81.1591 427.452 80.2168 427.452 78.9457V41.6679C427.452 40.3969 427.737 39.4764 428.307 38.9066C428.92 38.293 429.972 37.9862 431.462 37.9862H437.708C438.628 37.9862 439.329 38.1177 439.811 38.3807C440.337 38.5998 440.841 39.06 441.323 39.7613L453.222 57.4469V41.7337C453.222 40.4626 453.507 39.5203 454.077 38.9066C454.691 38.293 455.721 37.9862 457.167 37.9862H464.99C466.48 37.9862 467.51 38.293 468.08 38.9066C468.693 39.4764 469 40.4188 469 41.7337V79.0114C469 80.2825 468.693 81.2249 468.08 81.8385C467.51 82.4083 466.48 82.6932 464.99 82.6932H458.745C457.824 82.6932 457.101 82.5836 456.575 82.3645C456.093 82.1015 455.611 81.6193 455.129 80.9181L443.23 63.2325V79.0114C443.23 80.2825 442.923 81.2249 442.31 81.8385C441.74 82.4083 440.71 82.6932 439.22 82.6932H431.397Z" fill="inherit"/>
<path d="M179.73 105.704C179.467 105.704 179.276 105.645 179.158 105.527C179.053 105.408 179 105.231 179 104.994V93.0218C179 92.772 179.053 92.5879 179.158 92.4696C179.276 92.3512 179.467 92.292 179.73 92.292H187.934C188.197 92.292 188.375 92.3446 188.467 92.4498C188.572 92.555 188.624 92.7325 188.624 92.9824V93.5149C188.624 93.7647 188.572 93.9488 188.467 94.0672C188.375 94.1724 188.197 94.225 187.934 94.225H181.525V98.0316H186.179C186.442 98.0316 186.626 98.0842 186.731 98.1894C186.836 98.2946 186.889 98.4721 186.889 98.722V99.2545C186.889 99.5043 186.836 99.6884 186.731 99.8068C186.626 99.912 186.442 99.9646 186.179 99.9646H181.525V104.994C181.525 105.231 181.465 105.408 181.347 105.527C181.242 105.645 181.051 105.704 180.775 105.704H179.73Z" fill="inherit"/>
<path d="M195.831 105.704C195.568 105.704 195.377 105.645 195.259 105.527C195.154 105.408 195.101 105.231 195.101 104.994V93.0218C195.101 92.772 195.154 92.5879 195.259 92.4696C195.377 92.3512 195.568 92.292 195.831 92.292H196.876C197.139 92.292 197.33 92.3512 197.448 92.4696C197.567 92.5879 197.626 92.772 197.626 93.0218V104.994C197.626 105.231 197.567 105.408 197.448 105.527C197.343 105.645 197.152 105.704 196.876 105.704H195.831Z" fill="inherit"/>
<path d="M208.988 105.704C208.725 105.704 208.534 105.645 208.416 105.527C208.297 105.408 208.238 105.231 208.238 104.994V94.225H204.787C204.524 94.225 204.34 94.1724 204.235 94.0672C204.142 93.962 204.096 93.7845 204.096 93.5346V93.0021C204.096 92.7523 204.142 92.5747 204.235 92.4696C204.34 92.3512 204.524 92.292 204.787 92.292H214.214C214.477 92.292 214.661 92.3512 214.766 92.4696C214.871 92.5747 214.924 92.7523 214.924 93.0021V93.5346C214.924 93.7845 214.871 93.962 214.766 94.0672C214.661 94.1724 214.477 94.225 214.214 94.225H210.763V104.994C210.763 105.231 210.703 105.408 210.585 105.527C210.48 105.645 210.289 105.704 210.013 105.704H208.988Z" fill="inherit"/>
<path d="M222.121 105.704C221.858 105.704 221.667 105.645 221.549 105.527C221.444 105.408 221.391 105.231 221.391 104.994V93.0218C221.391 92.772 221.444 92.5879 221.549 92.4696C221.667 92.3512 221.864 92.292 222.14 92.292H223.048C223.232 92.292 223.376 92.3183 223.482 92.3709C223.587 92.4235 223.692 92.5287 223.797 92.6865L230.305 101.72V93.0218C230.305 92.772 230.358 92.5879 230.463 92.4696C230.582 92.3512 230.772 92.292 231.035 92.292H232.08C232.343 92.292 232.534 92.3512 232.652 92.4696C232.771 92.5879 232.83 92.772 232.83 93.0218V104.994C232.83 105.231 232.771 105.408 232.652 105.527C232.547 105.645 232.356 105.704 232.08 105.704H231.153C230.969 105.704 230.831 105.684 230.739 105.645C230.647 105.592 230.542 105.487 230.424 105.329L223.915 96.3157V104.994C223.915 105.231 223.856 105.408 223.738 105.527C223.633 105.645 223.442 105.704 223.166 105.704H222.121Z" fill="inherit"/>
<path d="M240.822 105.704C240.559 105.704 240.368 105.645 240.25 105.527C240.145 105.408 240.092 105.231 240.092 104.994V93.0218C240.092 92.772 240.145 92.5879 240.25 92.4696C240.368 92.3512 240.559 92.292 240.822 92.292H249.026C249.289 92.292 249.467 92.3446 249.559 92.4498C249.664 92.555 249.717 92.7325 249.717 92.9824V93.5149C249.717 93.7647 249.664 93.9488 249.559 94.0672C249.467 94.1724 249.289 94.225 249.026 94.225H242.617V98.0514H247.271C247.534 98.0514 247.718 98.104 247.823 98.2091C247.929 98.3143 247.981 98.4919 247.981 98.7417V99.2348C247.981 99.4846 247.929 99.6687 247.823 99.787C247.718 99.8922 247.534 99.9448 247.271 99.9448H242.617V103.791H249.007C249.27 103.791 249.454 103.85 249.559 103.968C249.664 104.074 249.717 104.251 249.717 104.501V105.034C249.717 105.27 249.664 105.441 249.559 105.546C249.454 105.652 249.27 105.704 249.007 105.704H240.822Z" fill="inherit"/>
<path d="M261.179 106C260.245 106 259.325 105.901 258.418 105.704C257.523 105.494 256.807 105.204 256.268 104.836C256.097 104.718 256.011 104.613 256.011 104.521C256.011 104.429 256.038 104.35 256.09 104.284L256.741 103.258C256.82 103.14 256.892 103.081 256.958 103.081C257.024 103.081 257.109 103.114 257.215 103.18C257.701 103.469 258.266 103.705 258.911 103.89C259.555 104.061 260.206 104.146 260.863 104.146C261.757 104.146 262.428 104.001 262.875 103.712C263.335 103.41 263.565 102.93 263.565 102.272C263.565 101.878 263.48 101.562 263.309 101.325C263.138 101.089 262.888 100.885 262.559 100.714C262.231 100.543 261.698 100.313 260.962 100.024L260.508 99.8462C259.653 99.5043 258.943 99.1756 258.378 98.86C257.826 98.5444 257.366 98.1302 256.998 97.6174C256.629 97.1046 256.445 96.48 256.445 95.7437C256.445 94.5471 256.899 93.6267 257.806 92.9824C258.727 92.3249 259.93 91.9962 261.415 91.9962C262.323 91.9962 263.105 92.0817 263.762 92.2526C264.433 92.4235 265.011 92.6865 265.498 93.0415C265.656 93.1599 265.734 93.2717 265.734 93.3768C265.734 93.4557 265.708 93.5281 265.656 93.5938L265.024 94.6194C264.946 94.7378 264.88 94.7969 264.827 94.7969C264.775 94.7969 264.689 94.7575 264.571 94.6786C263.729 94.1395 262.684 93.8699 261.435 93.8699C260.607 93.8699 259.982 94.0212 259.561 94.3236C259.141 94.626 258.93 95.106 258.93 95.7634C258.93 96.171 259.016 96.4998 259.187 96.7496C259.371 96.9863 259.634 97.1901 259.976 97.361C260.317 97.532 260.87 97.7621 261.632 98.0514L262.125 98.2486C263.085 98.6299 263.835 98.9849 264.374 99.3137C264.913 99.6292 265.327 100.03 265.616 100.517C265.919 100.99 266.07 101.602 266.07 102.351C266.07 103.482 265.642 104.376 264.788 105.034C263.946 105.678 262.743 106 261.179 106Z" fill="inherit"/>
<path d="M277.03 106C276.096 106 275.176 105.901 274.268 105.704C273.374 105.494 272.658 105.204 272.119 104.836C271.948 104.718 271.862 104.613 271.862 104.521C271.862 104.429 271.889 104.35 271.941 104.284L272.592 103.258C272.671 103.14 272.743 103.081 272.809 103.081C272.875 103.081 272.96 103.114 273.065 103.18C273.552 103.469 274.117 103.705 274.761 103.89C275.406 104.061 276.057 104.146 276.714 104.146C277.608 104.146 278.279 104.001 278.726 103.712C279.186 103.41 279.416 102.93 279.416 102.272C279.416 101.878 279.33 101.562 279.159 101.325C278.989 101.089 278.739 100.885 278.41 100.714C278.081 100.543 277.549 100.313 276.813 100.024L276.359 99.8462C275.504 99.5043 274.794 99.1756 274.229 98.86C273.677 98.5444 273.217 98.1302 272.848 97.6174C272.48 97.1046 272.296 96.48 272.296 95.7437C272.296 94.5471 272.75 93.6267 273.657 92.9824C274.577 92.3249 275.78 91.9962 277.266 91.9962C278.173 91.9962 278.956 92.0817 279.613 92.2526C280.284 92.4235 280.862 92.6865 281.349 93.0415C281.506 93.1599 281.585 93.2717 281.585 93.3768C281.585 93.4557 281.559 93.5281 281.506 93.5938L280.875 94.6194C280.796 94.7378 280.731 94.7969 280.678 94.7969C280.626 94.7969 280.54 94.7575 280.422 94.6786C279.58 94.1395 278.535 93.8699 277.286 93.8699C276.458 93.8699 275.833 94.0212 275.412 94.3236C274.992 94.626 274.781 95.106 274.781 95.7634C274.781 96.171 274.867 96.4998 275.038 96.7496C275.222 96.9863 275.485 97.1901 275.826 97.361C276.168 97.532 276.721 97.7621 277.483 98.0514L277.976 98.2486C278.936 98.6299 279.685 98.9849 280.224 99.3137C280.764 99.6292 281.178 100.03 281.467 100.517C281.769 100.99 281.921 101.602 281.921 102.351C281.921 103.482 281.493 104.376 280.639 105.034C279.797 105.678 278.594 106 277.03 106Z" fill="inherit"/>
</svg>
